ply
format ascii 1.0
element vertex 1024
property float x
property float y
property float z
end_header
-5.397947 -33.418777 1.518045
17.393807 3.372652 -0.271505
-11.175735 25.465927 8.005669
18.588778 -16.805506 -13.026337
-20.195170 15.114266 5.729000
-15.866606 12.341420 9.463601
14.063680 -35.881274 6.746509
-20.137612 16.078028 -6.280189
-11.411867 27.768495 -14.059786
10.650833 -25.536448 -14.477954
-18.015986 25.403500 1.708928
-9.747538 -40.469549 9.677737
16.932941 -29.690353 9.858765
20.315723 -17.110224 -2.825485
-18.900580 -8.732165 11.930866
-14.210935 -28.747327 5.729000
21.993079 -4.251970 -11.694201
18.796608 14.665589 5.729000
19.051703 -4.169546 -14.779857
21.856471 5.333166 -9.540036
12.603825 -23.884811 -0.681618
-21.839203 11.354627 8.097234
17.357641 -2.338957 5.018990
-15.645659 -26.389327 5.729000
22.839774 -5.545913 8.603275
2.446585 -32.540357 -7.399995
-17.509183 14.659164 11.813188
-15.782149 13.720774 5.362149
-15.041299 15.828582 3.890608
10.858718 -34.047291 5.729000
-17.287026 -1.736340 2.195574
-0.608725 -45.884987 6.687514
-16.610118 8.153317 1.107729
5.483253 38.795383 5.729000
3.008370 -41.593221 11.873449
12.615279 29.974870 -11.188927
-0.166033 -32.471056 -16.344668
7.742402 27.880644 -13.333053
-10.476161 -16.740088 -14.787356
-22.665530 -4.082938 7.139172
21.977092 -6.558938 2.126355
16.960632 10.926842 -15.853552
17.340245 3.705382 4.943868
-3.318180 34.405275 9.045854
21.681117 1.946762 -12.277268
8.412074 28.941665 14.764439
2.364008 27.337705 -17.036021
15.848753 -14.312418 -16.350889
-12.799863 -35.044935 -0.483905
20.435075 -17.785823 5.729000
-20.760027 -14.488407 -0.288049
18.887690 -4.481690 11.838558
10.060010 -36.757993 -3.177379
-14.477719 -28.878684 -9.461053
-20.436553 -15.322005 5.729000
-3.740602 -45.241217 8.175863
18.531743 4.786405 -15.158714
21.978121 -3.418928 5.729000
14.679211 -34.870491 7.877701
-11.208984 -35.072777 -5.146959
-0.385351 -43.765978 1.424723
-4.614278 -18.744006 -16.852372
-21.899972 5.107434 0.937325
0.794155 41.756814 11.659030
5.910076 21.401449 -16.289755
-16.952625 -7.501313 -2.807663
-18.371732 13.243832 -13.954081
-17.162040 -5.707581 -6.686976
-3.051272 -38.246568 -9.508105
22.684548 -1.841688 7.254038
12.695586 -35.467520 11.154515
-19.279409 -5.607597 11.927315
17.278639 -5.195102 10.734283
5.282438 29.902554 -8.549674
-20.171846 13.342682 11.227766
-9.641744 -6.151160 -15.687611
19.921994 -18.275813 -3.963951
21.952809 -6.521617 -3.419279
18.234614 -7.087027 -15.285573
-6.398407 30.175640 14.085729
17.010708 -3.745757 -12.116361
-5.007679 -31.602550 -6.382010
8.051572 29.522268 3.646189
-20.111344 11.781848 11.475681
3.675637 42.171755 11.259667
-8.671069 39.055513 5.729000
2.183306 33.917975 4.948803
12.436431 -34.121063 -3.897650
6.168105 37.799014 -6.209423
-10.478743 31.089606 11.472116
-21.959274 -2.018868 -3.764838
-21.832091 -6.193350 2.343017
-13.985257 17.937920 -14.210360
-7.750168 -28.841392 -16.429472
-22.187993 9.182278 7.971425
-16.286563 -28.962174 5.729000
-16.490901 -11.039697 0.032507
-13.943150 -19.251404 -12.678935
16.287148 11.160850 -1.592020
22.066681 4.390850 0.930914
17.160286 5.010246 -10.298392
-15.788723 13.166606 -3.616776
11.190987 -17.904825 -14.115436
15.993967 -10.057374 7.973297
-21.420286 -9.743213 4.277036
7.876381 -18.104570 -15.816972
2.655896 -10.302461 -17.229469
-2.893407 -38.624885 5.729000
-12.815996 22.901706 9.046063
13.284099 20.053218 -15.551441
-11.589742 23.622095 -1.374670
-2.449145 -45.169578 4.391898
-0.875933 24.773676 -17.134260
-15.376218 -16.489212 1.745036
-13.926077 4.258441 -13.867565
-17.280622 -1.020653 4.985391
15.702463 -27.975023 -7.527473
-3.693087 -41.260212 5.729000
22.062297 4.256633 5.671964
22.347742 -9.025522 9.521035
1.691679 -39.045102 -8.172705
-21.048456 -4.073502 -12.817203
22.671164 -3.862815 7.080800
-17.182200 4.567671 5.798333
17.380510 0.551342 -0.619274
22.018274 -1.667415 2.907633
2.634939 0.141785 -17.242166
18.186225 21.447188 -8.342743
-16.178864 10.612560 -12.254417
-0.005402 21.837534 -17.352471
11.003828 -21.451652 -13.674985
3.547347 -33.993345 -0.217211
9.665854 13.618971 -15.378107
20.667095 16.164524 2.058344
-5.369036 -38.784078 -6.345396
-16.181897 -16.575119 5.729000
17.341301 -3.561923 -3.380560
-17.114111 5.137250 -3.308304
-15.450116 -29.658167 -1.822518
-17.066397 -6.578302 -4.147317
-17.503006 -24.954866 -5.006921
-15.500233 -16.495771 4.987702
14.144918 -35.821989 8.062449
-13.312140 -24.683558 -14.762927
-17.990600 -5.082314 11.403322
1.004538 -36.793652 8.863250
-9.678639 8.037897 -15.569918
19.180978 20.081168 -1.510874
15.671085 13.093711 6.834058
-21.079992 11.556952 -3.817141
-15.597993 13.554449 -6.903143
-12.903852 -1.307321 -14.392937
-18.579670 -24.477139 5.570344
-20.514853 -15.621269 -3.833899
-21.963800 -4.935079 -10.031097
16.995618 6.104144 -11.495382
-16.552817 -4.295332 7.563154
9.434572 9.883182 -15.689130
17.170814 4.463809 10.382926
6.035713 -26.265740 -15.583878
-6.570693 35.376558 12.137830
-15.859558 12.463822 6.223749
-1.041620 32.014019 -5.629587
-18.375634 -24.864608 4.250497
2.128802 -11.050156 -17.257169
-14.956330 -29.642146 5.729000
-15.159697 -15.607958 -14.404167
-7.591830 42.688111 4.571314
10.654271 40.035468 5.260970
0.571248 -40.586180 5.729000
20.410248 -1.516382 -13.480285
-1.289216 -44.031721 2.021482
22.067537 4.619413 2.233058
2.983914 -37.613460 -10.669525
2.378342 44.987015 4.197948
2.185730 31.361274 -10.901769
-17.225457 4.506846 -10.675988
8.841804 -40.162808 10.952073
16.608055 8.841042 -5.365354
2.045921 31.680125 -6.957166
-0.006400 -17.234447 -17.367543
16.357283 -13.704482 10.862519
-16.368157 -12.151356 2.707826
-17.907951 26.998480 8.327050
8.042773 -23.958195 -14.913136
21.490210 -8.277732 11.108677
7.159050 -29.780453 -7.418053
-1.287470 -7.545921 -17.309902
21.006305 13.215118 1.514111
-9.210773 29.107381 8.520324
22.048850 2.025466 0.187361
-0.613805 -45.624297 8.267019
-21.099103 13.081592 6.021422
-8.082204 -24.056134 -14.946777
-0.392781 39.118129 -6.493991
21.382711 12.532132 6.108372
15.141169 -30.225765 -4.141686
-1.875840 21.864254 -16.796570
-21.225920 -10.974346 1.933224
-9.460496 -27.135073 -14.307191
-10.422319 -28.967288 5.334661
6.288756 19.434881 -16.335808
17.399858 3.267210 5.084325
16.080928 30.866991 4.514724
-1.128147 -25.482405 -17.304824
1.888968 -38.193579 5.729000
-2.362561 22.803652 -16.796570
-19.449671 -19.146082 -1.815018
0.791573 38.233941 -8.019342
2.320639 33.000965 -14.829201
-15.660768 -18.593898 -15.194289
-8.920130 30.135026 9.601514
-16.085315 -13.032460 -5.436029
-5.464490 -29.966309 -14.412501
-8.257633 -38.293143 11.872305
19.326617 18.273333 -6.481991
16.529044 9.203605 -14.633568
-18.027136 22.337833 -6.728299
5.213873 -44.384996 5.729000
-0.036495 29.232460 15.795293
8.362907 41.574157 9.430256
16.763517 2.972692 8.811068
-18.825741 -21.807539 -0.505866
-21.843881 -12.028036 9.230725
-18.315730 -20.899908 -11.722634
-1.430312 -8.722933 -17.303159
-15.125580 -18.633215 5.729000
-13.738520 -30.535143 -9.097259
-17.935266 18.505695 -12.640832
-14.748685 16.112148 -3.436722
21.193582 10.536754 10.700819
-17.267403 0.479900 4.267008
4.650057 5.469325 -16.977591
5.080181 42.151121 0.727998
20.269555 -12.400422 5.729000
-3.413669 -34.762257 -13.862199
13.787327 -21.504202 6.617855
0.666856 -17.829249 -17.323073
-21.911828 3.061767 -6.729977
21.149284 12.031033 1.546687
-0.294564 -45.175923 4.257779
14.400852 32.742846 0.601586
22.002479 -3.727312 2.638754
15.737992 -26.982813 11.867851
22.019321 -1.982069 -2.039933
-11.603532 -26.514963 9.058694
-16.965458 -11.712615 11.217948
17.362452 -1.245608 -5.817195
4.495875 36.531244 -9.915723
-0.966457 34.363701 6.897113
3.195129 23.272490 -18.215611
-1.428706 -45.861057 6.334761
-6.157863 23.729798 -15.792923
10.752011 22.599102 -13.075957
11.859989 31.323940 -10.039849
-19.864533 8.516185 -13.248913
-15.956558 9.875093 7.361601
6.193077 2.999121 -16.733309
2.573991 -38.203565 11.105699
15.783012 13.963066 5.729000
-18.072490 22.813203 -5.061268
11.237302 -23.898806 -12.266758
-21.898836 4.526197 -5.527995
-21.978826 -4.321355 -10.766279
13.275028 -16.320117 -13.189025
2.634067 41.408522 5.729000
6.265669 -40.126232 -2.321457
-21.715833 6.734006 -6.484648
-16.826988 6.822790 -6.217167
-10.941776 23.869578 -14.149829
-21.486464 9.136494 0.221796
10.314813 15.591909 -14.940113
20.202347 19.120714 9.365726
-21.967891 -2.985965 -9.402502
14.985946 -16.457670 -11.164833
-12.115421 3.773301 -14.753596
21.986969 -5.434267 -0.160168
-3.789404 -31.613689 -11.564012
-15.783639 -31.460415 4.693040
-0.606729 -45.892023 6.039517
-7.960724 -28.048810 -13.017466
-17.060733 -7.015346 1.751574
-19.149676 14.217396 11.790083
17.644845 -19.707010 11.951084
-10.840330 22.995826 -12.684210
-13.566485 31.179829 -6.003430
11.095132 -37.451171 11.140339
-9.789717 27.742474 5.003658
-10.087064 -33.483219 -11.055514
-14.127717 17.542051 -13.732761
14.666432 27.788251 -9.483567
-3.058826 36.484414 -10.820946
-13.761221 -32.985925 -2.638641
16.668254 1.337993 8.141000
-3.216578 -8.428637 -17.177925
-12.415662 -36.984051 5.729000
-21.938384 0.550649 0.189413
-21.101540 -10.761663 -6.847974
16.149811 11.722869 -13.079633
-16.741506 6.125484 6.346651
-19.065285 6.618519 -14.319051
0.075956 45.579772 7.496983
5.241761 -36.718012 -10.568807
-20.851707 14.272357 4.767336
-18.224954 -22.922620 -4.482119
16.714609 30.354286 7.259086
11.976807 27.515630 11.162903
-18.351699 -25.297383 5.444240
8.273335 4.728470 -16.173463
14.851865 -4.746341 -13.437006
-20.445198 -5.779605 11.811874
-14.687075 -17.023417 -9.113399
-14.390319 13.077726 -12.812826
-22.692200 -1.700812 7.712915
1.412196 -34.113316 -2.639836
11.360258 29.128093 5.729000
-12.531313 -37.372906 4.662582
-16.173399 -13.667779 4.077275
21.964671 5.818108 3.710170
16.060700 -19.065544 5.729000
13.369510 -22.222856 -1.599495
-14.057231 18.738928 2.942815
3.977692 30.453761 -14.614918
17.818193 -10.785972 -15.119290
19.350422 -22.925837 6.246912
-9.159270 -12.478528 -15.697004
16.164405 9.003339 7.859748
-14.706126 19.146567 10.525086
17.073013 -6.965221 -16.492482
-21.682836 9.274079 6.157041
-22.360403 -1.180310 10.039362
-18.691332 -21.507189 5.729000
-13.972756 26.670515 5.729000
18.563027 4.068316 11.736322
7.794738 -40.502042 5.729000
-13.279938 31.465947 -6.387694
-15.719525 -14.969680 6.250921
6.554391 -40.396198 -1.481870
-14.043332 17.776542 -10.365593
-4.485668 19.726412 -16.763321
-17.754364 23.828296 -4.697956
12.260878 -25.647452 5.967644
-11.037607 33.619495 -6.387297
-18.043612 23.771643 10.608662
-17.281433 -4.781854 -7.453315
1.284385 36.256459 -11.534931
-1.249067 30.516538 -17.035949
-3.951806 43.801752 3.153955
-9.734951 -29.853078 4.665744
-15.682055 -29.245854 5.729000
-18.367899 -23.075180 -2.081101
-20.635800 -16.170905 3.617194
9.279989 35.402306 9.967099
14.725137 -6.078037 -13.444896
-9.462497 -38.766396 -0.890750
19.837452 -16.004368 5.729000
-14.135208 -20.316037 6.298988
-7.877917 -28.713942 -15.853257
-15.621039 16.258112 10.550724
16.157210 18.759200 -14.415324
16.501279 9.626205 -3.843203
21.269952 -11.875492 3.998182
-20.174886 -12.564621 5.729000
-17.936896 -1.730319 -15.822002
15.813022 -14.278221 10.080861
-7.500146 30.424431 6.770841
-14.539974 34.407035 6.384831
-6.179858 -35.069892 10.054109
-21.823440 6.412644 -2.166792
-18.065000 -22.139631 -9.300646
-7.183847 37.253668 -6.076037
0.388108 -45.573670 8.576142
-13.845107 -19.545033 -9.465829
15.543971 -14.907015 -16.327714
14.933945 -16.602172 -10.270289
-14.003880 19.016356 3.979605
13.239992 -34.906690 11.003391
-11.243480 29.871723 -12.693799
3.838418 -31.632389 -12.101846
3.805060 32.377370 1.278935
18.233173 -11.248920 5.729000
9.800194 -30.740178 9.668117
-21.269766 -16.284429 6.970898
-4.041869 -41.534951 11.803228
-21.777440 -12.561157 7.252209
17.392014 3.331237 4.507909
-13.059262 22.642487 5.729000
13.095211 -21.596468 -9.635288
16.722012 -24.901415 -11.125081
-17.235576 4.108131 -1.653386
-8.158065 38.391789 5.729000
7.939490 -29.934492 -3.991798
-13.559204 -6.491267 -13.997370
1.311050 -8.057628 -17.305972
4.981133 -23.616050 -16.465355
20.837691 -4.367572 -13.038263
19.129665 -22.180869 2.327258
21.990424 -4.899454 -3.902312
11.157722 34.318052 5.729000
15.127238 -33.980249 8.199235
9.058948 -10.674030 -15.762246
-2.923327 -45.781171 7.387168
-17.235687 4.087060 0.690284
16.897289 10.475605 10.923167
-14.848287 25.191642 11.874308
-7.455348 6.426441 -16.308039
-21.802872 5.851753 -8.757009
5.694943 38.588252 -5.195152
-21.229212 -10.778966 0.920037
8.798127 24.797146 -13.802550
12.983663 25.894985 -13.965661
-0.617557 -34.190758 -14.724969
-21.982362 -4.798780 -10.066700
-12.023736 -25.081462 -15.701783
14.136684 -20.008192 9.170977
16.620344 -26.380704 -7.580058
10.276156 -24.250961 -12.944796
-4.482537 30.270668 -9.069369
20.602678 -17.211794 5.817241
16.666149 2.072064 8.416742
-15.608872 13.736575 -3.178222
16.173188 21.876797 5.729000
1.833511 37.247560 -9.734483
-17.283740 -1.189266 -2.625832
-18.479177 -21.331848 5.729000
15.547067 16.049579 5.729000
-18.130865 -0.507217 11.501489
15.162010 19.043933 -15.281541
-13.937997 -36.113756 6.403620
-10.493732 25.949404 1.413673
14.007394 -26.427015 -13.208320
12.136427 -32.222911 -9.370860
-17.248139 2.694609 -4.481858
14.773668 34.089095 5.413763
-20.883017 -13.066782 -2.681621
-14.101272 -19.066687 -7.039529
-11.190053 23.469392 -15.178803
21.214859 -12.290832 4.251159
-19.411132 -19.180075 -2.306279
5.104431 44.410629 5.115184
-12.509859 28.468141 -12.817454
-13.280555 -20.964361 -11.743306
3.874370 31.594094 -2.703946
12.433400 -3.212552 -14.648976
18.506655 23.441127 0.870843
14.083723 18.818792 -1.107218
11.170359 -14.600491 -14.647362
-12.180651 -25.674504 5.559311
15.445786 -10.070745 -12.584753
-3.420719 -31.900153 -12.899393
-12.390138 22.313932 -1.538772
-12.464428 37.985766 5.729000
-11.764277 36.807080 5.729000
6.733086 -31.258591 -3.181105
-3.965442 40.434786 -2.859633
20.819291 -13.790956 -5.859745
9.592310 26.035119 -9.729731
4.077311 42.727899 0.862771
-16.890620 -30.407199 8.237447
-3.990925 -31.517928 -10.124435
16.972150 -7.793075 -5.424519
16.771945 7.590006 -14.711258
-20.047663 3.952843 11.895428
-17.243642 -4.928818 -9.971730
7.860098 29.970061 14.576524
-17.973238 -19.038830 11.888333
-21.970802 -3.761309 4.529913
19.109696 20.201005 -1.937189
16.453228 24.096813 -11.265194
17.367856 -0.917414 1.493159
-10.217800 -31.273243 10.898132
-8.248060 10.502621 -16.007567
-4.333017 -31.355370 -10.044241
2.621869 -30.715631 -16.549896
6.849612 31.056036 4.857600
19.389967 -20.730484 10.916465
-14.939204 -9.985274 -12.904672
-3.826929 42.306032 0.359833
16.527808 -27.633624 -4.037969
15.185172 -13.653340 -12.406903
16.265120 -12.632486 5.932583
-20.603596 -16.756135 5.528859
-4.160776 -22.660613 -16.832355
7.129845 33.305228 13.270283
7.317718 -33.436113 9.508378
15.997680 12.897317 2.536420
18.340464 20.583931 -9.331334
-7.279944 28.222757 -14.104858
19.966969 4.541270 5.729000
13.156685 30.012263 -10.074748
16.806445 -8.520347 -16.055436
7.452591 -29.556466 -16.365976
-13.577553 31.486908 -5.293077
-5.507632 -44.337720 5.514605
-17.040072 -8.701438 5.729000
22.622324 3.112822 9.362710
-16.021316 11.660949 -3.788357
5.449184 31.929747 3.475667
0.260823 33.348652 1.635600
-8.123807 40.000860 5.729000
16.519559 -10.794168 -1.303407
-14.282456 5.298409 -13.628510
3.618966 4.426806 -17.139812
-6.005439 23.610899 -15.883152
-17.294989 2.279514 -16.413009
-6.101528 -35.402720 -12.146190
-20.429914 16.191704 -0.330405
14.410665 17.065245 -8.555672
12.526223 29.672923 -11.925131
-7.263324 30.102610 2.297442
-6.326640 12.134475 -16.506601
6.569100 -31.177052 -4.093255
-12.873048 -21.665209 -10.748610
-20.876866 -14.173835 3.687864
20.733141 13.835749 -5.823840
17.125405 25.118205 -4.991328
18.790099 -6.136056 -14.912467
-9.993910 -26.389736 -12.056784
-6.373577 -33.926011 5.729000
-16.926523 -7.035450 -10.246072
-5.826924 29.313576 -12.459112
-8.357066 -28.235916 -10.055175
10.552492 15.156609 -14.875029
-16.666979 2.173139 9.076191
-22.593119 0.337629 9.192249
-20.491210 -16.799878 2.849315
-10.659547 25.228425 -1.409780
16.186877 -17.885984 5.729000
-16.085002 19.821656 11.651125
7.486145 28.136293 -14.760270
19.274943 -11.301780 -13.609782
-3.861059 36.123943 11.091101
7.161676 38.261585 -4.382336
-17.477349 -27.271875 2.906782
-20.759395 14.735109 2.796107
20.968108 -8.137249 11.517331
11.751188 22.689630 -12.354587
-17.057059 13.105114 11.435987
-12.866665 31.639015 -7.015635
-17.242578 -28.692715 5.674389
10.211290 -38.831906 1.659737
-20.002750 20.028629 6.336587
5.003090 36.551097 5.729000
-19.973574 10.132105 5.729000
-11.063415 -24.777495 -8.628599
-15.196494 18.332896 5.729000
-1.896702 2.121322 -17.273855
14.053969 28.041209 -11.789764
-5.609736 30.405511 -5.032564
4.182767 -38.514949 -7.655273
9.821066 40.371213 3.679144
-12.118293 32.206595 -7.289250
-17.191085 10.563730 11.280948
15.019249 15.235610 -14.146686
-21.947897 -0.802719 4.305240
16.449035 9.735114 -11.296010
-14.129086 18.212248 6.607790
5.419731 -16.302421 -16.677795
-21.949296 -0.860336 0.343989
18.042535 21.011101 -11.392779
5.633649 27.635655 -15.135547
-20.784119 -14.156746 -1.077735
-16.797070 7.006011 -14.347064
-17.169124 4.835486 -14.199267
-0.315313 41.329538 11.820679
-7.941795 -29.862546 -15.764743
17.401886 2.831592 -7.872804
-16.783953 -24.152004 -11.944039
-14.073559 -32.082180 -3.232646
-6.494263 -4.556335 -16.633184
22.712550 -7.371919 7.745656
17.581002 27.656442 9.331512
-8.609106 32.609155 5.729000
-12.960737 -23.987724 6.159924
18.170812 -24.384010 -1.891371
-11.589697 -26.270747 2.685899
19.007830 12.419404 11.940774
21.623885 -10.812366 6.073378
-7.536439 -28.995532 -12.130942
-4.858418 37.961207 5.729000
14.196567 18.235613 7.843860
6.345520 23.924638 -15.879000
-13.978148 -20.119964 -3.287228
-7.984735 19.119053 -15.513290
-11.658697 22.714006 -15.085402
11.612067 37.505232 2.281228
1.213596 40.486574 5.729000
16.843575 -18.202976 5.729000
4.407285 -39.252750 11.881632
-21.486892 -15.675569 8.594391
21.257307 11.388923 10.385538
-19.054630 -24.541842 8.875439
-12.635239 -30.628067 11.919143
-9.367335 26.816761 -5.244764
4.019151 30.490055 -11.958418
22.050713 2.201370 -0.519950
8.355853 -20.835445 -15.332996
10.398308 25.016412 -16.146528
21.992684 -4.883257 0.590464
12.609941 31.650714 11.913304
-11.702186 1.354989 -14.954429
3.873518 -43.332977 5.729000
-14.067098 -23.039888 -14.865230
5.164506 35.126188 -11.869750
0.727795 -32.495175 -14.888987
13.899876 35.426756 8.893514
-19.542974 -19.262044 0.013197
0.050298 14.640570 -17.366975
17.354753 -2.685162 5.271863
-17.302475 -3.427143 2.025804
-9.010954 -34.928355 -10.245003
-21.263887 -9.732094 -5.269522
15.311054 -30.157301 -3.625081
-2.764074 -32.882292 -5.571743
-21.967024 -3.227640 3.020790
4.627564 39.051854 11.972043
-12.832977 -36.391587 3.102504
4.242655 39.830311 11.894676
22.497626 -5.377091 6.624224
9.452193 12.774169 -15.539547
-14.321693 -10.003625 -13.321828
-17.245082 3.099253 -7.316156
-11.991096 28.920322 -12.871552
-15.555890 14.759282 -16.082361
17.537784 23.140863 11.432069
-10.763401 26.281833 5.729000
16.171945 -10.351953 -12.111315
-17.638086 26.147131 5.729000
0.922189 32.439704 12.789722
4.107697 -39.390238 5.729000
1.510600 38.713811 11.817614
0.209206 26.147484 18.043177
17.364265 3.637426 -4.514573
17.573477 13.271411 11.759164
-20.242822 12.901808 11.229881
-5.860415 30.534069 -15.677934
13.102177 -27.323573 5.729000
21.113050 -12.612483 -2.913921
-1.529967 1.028744 -17.293204
7.615828 37.988080 -4.387721
-14.348316 -18.037968 -9.717680
14.655889 28.888691 -6.791369
-19.992918 3.842652 -13.771166
12.446665 -24.817805 2.889456
6.637516 35.771303 10.722457
20.059550 -20.212331 6.107299
-17.282450 -0.654478 -14.797550
-12.238954 -8.170234 -14.565260
-11.944434 22.310914 -8.100120
-17.228835 4.455234 0.217960
-12.056661 34.484549 11.512133
18.693600 -17.985325 -12.545748
5.980733 -43.693501 9.120326
-16.337668 -11.834577 -1.706170
-15.593289 28.499567 11.310925
11.628983 38.139789 3.748495
-8.205670 -41.823682 5.729000
5.586625 -32.453970 -2.567281
1.061260 32.741836 -1.459961
17.345267 -2.980232 -8.750420
16.638745 -25.942425 5.729000
-9.527215 -2.661248 -15.775820
-22.472755 5.663740 9.038301
-17.457318 28.428154 8.429419
-19.310288 22.428838 8.810338
-20.280059 -17.844213 4.718215
-5.853770 35.245542 11.422061
-17.838676 -22.552332 -10.824188
6.259320 -33.860125 6.542943
5.778289 -12.942165 -16.695359
-19.193592 10.830901 -13.512305
1.537261 27.203783 -17.262869
3.664478 -33.682871 -1.220253
17.336602 3.723309 5.710497
22.588931 4.384852 9.467388
20.373946 -17.650240 1.263351
21.902067 6.612499 5.333298
-10.823796 24.492324 -4.688555
-8.252113 28.358542 -2.570700
-7.263158 -15.822449 -16.187947
-7.302341 30.002710 13.497697
6.886685 31.195010 5.940311
5.943104 -30.647565 -8.428344
8.626164 26.998976 -11.348295
-12.233035 -35.063637 -2.268284
6.290988 -11.994472 -16.575472
8.370242 -35.612838 -9.858536
6.100839 43.098195 3.728997
8.947970 -19.316817 -15.221908
-13.396372 20.470693 0.280844
-22.488783 5.802080 7.409223
17.362809 -1.301840 -1.011431
-10.211699 1.357197 -15.507376
-16.608206 20.000333 -13.385646
-9.269276 -27.325845 -16.069444
-3.904900 -32.816425 -3.659378
-4.729604 -42.174509 5.729000
-13.064761 -21.584251 -7.517947
4.600889 -31.314190 -11.872087
7.499285 -37.849861 5.729000
-17.186485 -5.947408 -0.440913
14.730617 -29.641984 -7.274785
7.199298 30.653818 13.700364
-15.926754 12.082630 -8.425278
9.564464 -32.524089 5.729000
-16.571376 3.268245 8.264952
-3.119510 -38.171280 -9.655063
-11.918760 23.895801 4.583133
-19.529975 18.159147 -6.433283
-4.930732 30.083625 -13.638968
17.496340 3.370212 -16.333409
-12.338352 -35.300735 11.371585
-5.299406 -35.534276 9.971797
18.655892 -10.596739 11.921441
11.232536 28.826311 11.061799
22.021204 -1.531570 -8.182282
15.958725 12.677580 -4.454869
-5.985541 -19.573024 -16.433473
7.848301 -30.879366 -0.444145
-7.537574 -6.661723 -16.340397
6.799486 37.250094 5.729000
-17.088470 -6.108997 -7.458563
20.289410 18.230261 5.154433
17.367102 -0.735608 -12.148269
7.713381 -40.007839 5.729000
-9.717919 28.330740 8.022644
-10.958765 -39.463544 4.979716
15.627627 22.358550 11.844615
2.594270 31.167141 -12.844780
21.610483 6.765011 -11.766333
-4.242878 -26.593900 -16.598424
-17.509076 20.646314 5.729000
-21.698032 8.147071 5.398640
14.580614 -19.445694 3.351815
-10.281443 30.782140 11.269314
-21.978995 -4.379762 -9.587871
-19.807978 18.820527 0.316141
-11.669046 31.691595 11.907012
22.806342 -1.885781 8.632475
8.969622 -36.856860 -5.687129
-8.941325 -9.186596 -15.876806
10.907068 -30.439754 5.729000
-13.813047 19.603051 3.998719
-13.115201 -0.367060 -14.285315
0.687778 28.066495 15.702854
7.043801 -33.078875 8.051018
3.091826 -32.913738 -15.651138
-18.701293 16.427608 5.729000
-10.973348 -35.731010 -4.223954
-18.501768 -20.470038 -10.954635
9.799046 11.661430 -15.472459
18.229285 4.987066 -15.421954
9.117053 29.752129 9.352698
4.516057 -28.504639 -15.942075
2.952855 -41.752220 11.852825
-21.967850 -3.181501 -11.253348
21.074524 3.262613 11.581214
11.832671 -35.274227 -2.402685
18.738716 19.069927 -10.755196
15.099082 -18.036487 4.302184
10.216138 -26.237113 -13.961217
-17.266829 0.904048 -7.918497
-8.514807 33.616554 11.605848
-17.429540 -2.859277 -16.325968
10.968394 29.327666 5.729000
14.546874 27.409547 11.931922
13.031358 37.236652 6.044288
0.823375 -37.870213 -10.480949
11.627952 30.664623 -11.758477
-12.789357 29.106041 -12.188195
-0.648490 39.480376 -5.857977
-22.672486 -6.252710 8.870511
-14.785032 -17.526176 6.588490
-21.137458 11.670216 0.033587
22.035796 0.212459 -1.253932
9.195176 34.749464 5.729000
14.251384 -35.491229 8.671013
14.337958 -18.258316 -13.309914
2.624591 -32.138951 -12.944456
-18.789114 -25.709976 8.477824
-20.388485 -20.401691 8.428499
15.460428 16.621713 -15.738515
17.406259 3.250753 -5.213119
6.151395 -36.166216 -10.939014
-8.489973 42.417208 7.272482
-21.872993 5.658122 -5.797143
-14.844027 15.551549 -11.797060
21.644284 8.060220 2.229198
-16.216526 -11.751984 -11.944407
-11.515218 36.539588 0.835415
18.030363 -22.592849 -9.141085
-5.347939 9.116800 -16.802034
-21.034878 12.224478 -1.786025
19.309535 17.653947 -9.453941
-1.743583 31.413706 -8.816966
-16.372351 -12.233395 4.389343
16.218992 -12.647374 -1.892518
-10.233952 -11.238137 -15.296680
-16.079665 13.063107 -16.110593
-7.690374 -31.598961 2.687834
-10.257128 39.500417 3.692992
-8.993018 -30.910945 5.626691
10.952448 24.063362 -14.748510
-2.859450 32.153153 -2.247683
10.727179 37.679417 0.193170
8.037847 29.267427 2.102852
9.128036 -9.424173 -15.778915
21.744956 -8.118532 -1.842252
0.159093 24.183820 19.088349
0.147022 -33.167585 -6.043577
-16.514395 23.054757 -12.257671
15.894870 25.856723 -8.961335
18.535904 -24.265630 2.409965
0.715512 -35.466117 2.494725
-16.546206 -10.386526 -2.195080
2.522819 -34.613978 0.470626
17.377078 0.199484 -0.704353
-18.713036 -12.125040 -14.028373
-0.951835 24.918415 -17.268733
8.517632 -34.382927 5.729000
-2.927158 -32.820435 -5.483374
-6.704800 -24.305048 -15.677872
-10.632308 -19.176912 -14.343322
-12.031786 23.777219 6.582281
4.002320 28.918097 -16.101475
14.537130 17.825074 5.860570
14.132794 -20.185838 6.726093
-16.740638 -8.270290 -14.819703
10.941033 -31.832880 -12.280604
15.664597 31.619553 4.188833
8.468988 -33.489909 10.866390
-13.216488 22.524036 9.581317
2.476981 -4.103716 -17.248147
-3.656560 -29.742617 -16.264055
18.667697 -20.120573 -11.471489
-2.000377 6.226130 -17.263413
16.169125 -12.238407 -16.045479
6.381834 -3.087531 -16.668670
-7.981740 -20.603128 -15.625786
16.623363 16.044266 11.531845
21.641008 -8.611301 -7.413731
-17.356242 -23.783058 -9.965768
-13.581171 -16.415289 -12.945567
-12.895322 36.165529 9.732910
16.071749 -12.806490 -8.813723
7.665355 28.755254 -3.183833
-14.295030 6.389737 -13.544351
11.355676 31.973807 5.729000
-11.020514 -5.216976 -15.207800
16.799911 7.404231 -16.227664
1.493103 -15.696275 -17.279369
-4.979949 42.910948 5.729000
7.521312 -42.669933 9.599000
-7.800755 -38.616654 -3.982873
18.583842 -26.114812 6.869603
21.003568 -13.096998 -3.762476
-17.404807 8.185423 11.225368
-20.581097 -16.949041 5.561584
-17.294954 -2.030022 -7.279542
-15.295374 14.962615 3.046702
4.710266 11.121544 -16.937488
-1.868018 36.543657 -11.173174
2.037945 -36.103912 5.318754
-17.762527 -25.578379 5.729000
-17.104710 5.199574 5.091757
-15.125730 -33.832361 8.487922
5.438520 -39.848313 -3.661320
-16.062373 11.283039 6.145365
11.147478 37.421929 0.793908
21.064240 10.520006 -10.375841
16.989904 6.267170 5.282324
15.936805 19.433232 11.691106
-15.483789 14.646490 9.515869
7.924760 29.983113 15.829546
-10.282966 -39.248683 2.239546
16.745201 -8.877638 -15.476692
10.369266 26.194661 -15.801616
9.477795 40.563787 9.227194
12.170576 -36.795007 10.770166
21.607541 -9.176875 -0.745668
17.389345 1.429104 2.047402
-12.816272 -2.510137 -14.441400
-21.558169 11.165795 6.552388
1.881571 44.228948 5.729000
22.186559 -10.824093 8.913848
13.931471 -19.722888 -6.149925
1.403414 24.756688 -19.470000
-21.190388 -1.618873 5.729000
-17.872797 12.979928 11.850123
19.548306 5.708369 -14.066325
-13.076953 -23.232488 8.876239
13.739370 20.699194 8.974510
22.022571 4.169914 -10.198883
17.266997 1.809972 10.386470
17.367756 -0.739232 -2.414539
-1.964927 24.622977 -16.889937
22.137201 6.423190 6.153355
12.320066 -24.053073 -15.922255
-4.405599 31.639526 -1.360339
-16.012673 31.466721 6.363941
22.048740 2.300779 3.373665
-21.914796 3.484327 3.607727
2.818041 39.746691 -5.192623
8.991269 28.900538 6.964644
-12.694772 34.999255 10.829069
7.353220 -43.252855 5.222022
-20.886415 -12.599062 -5.332480
15.832769 26.251061 -8.132879
-17.272597 -0.086964 -1.736632
-16.686229 7.634728 -3.657390
0.370367 21.612264 -19.470000
14.058277 -27.253611 -12.745044
-21.054344 -16.869382 9.834431
0.433221 -32.487226 -12.798363
-21.810209 5.750921 -9.193656
0.683109 31.652671 -7.298251
21.020086 -12.859474 -4.539315
20.692405 -14.628579 -5.323785
-1.336848 36.481864 -11.258116
-11.309032 30.762470 11.780134
21.473236 2.870923 5.729000
6.857969 -34.262895 5.729000
17.976133 -0.857378 11.325760
12.184751 35.789017 10.766509
-19.196185 23.208936 7.212617
-0.043441 45.324905 4.657849
-9.706723 -26.889423 -8.638245
-16.632957 -6.751642 9.836314
8.018131 34.449105 9.818311
2.945022 -32.005227 -9.895593
-16.811971 16.437368 5.729000
-18.819527 -21.980814 0.016167
7.419547 -31.346896 -0.313324
16.241765 -12.660311 -0.715922
4.548027 30.238739 -8.631387
-9.937378 25.488521 -12.766340
16.165840 12.131075 1.706860
21.078535 11.357884 -4.049731
17.581081 -9.430846 11.400746
-2.972530 36.889169 -10.136087
-20.318987 -17.878256 5.345954
8.261500 29.260551 14.319084
-15.367047 0.561785 -13.085129
-21.707078 11.974408 7.591766
15.237970 15.530134 5.036679
19.484310 -17.917659 -11.251046
10.512041 38.505349 1.438877
9.191113 -37.163979 -4.473759
-5.226964 34.170120 10.011407
-0.772404 22.209521 -17.292610
-17.233220 -10.843264 11.341673
-16.496446 -20.452163 -13.795855
14.627533 -18.043625 8.951155
20.686176 14.278843 -5.594513
11.187007 -39.689005 7.814554
6.474025 -30.190507 -8.293892
-19.690984 -19.908232 4.199173
16.542349 -26.197130 11.738967
-14.242748 17.222398 -14.958617
16.904613 -8.058514 6.057662
17.389490 1.565854 -8.778227
11.546869 21.210214 -12.964066
-18.783046 -0.490568 5.729000
-21.343626 -9.766680 10.926377
-15.156077 -32.750748 4.528786
-15.582934 27.341954 11.682686
-17.281286 11.896481 11.493234
-14.157825 -3.299645 -13.790382
-7.714025 -36.363616 11.788425
2.279460 -34.977490 1.449861
8.170286 -31.746123 -14.277590
-4.096743 14.444152 -16.936825
13.324366 -22.551841 -0.587446
-16.439727 -7.913392 6.824345
-21.382579 -13.166165 10.103710
11.669579 -28.598348 10.867210
-11.776967 -34.442384 -5.286033
1.903792 14.730672 -17.279631
17.603099 -6.641795 11.130716
17.372548 -0.175771 -13.467292
20.906420 12.908094 -3.535681
-21.932074 1.351035 0.600236
16.881665 7.128781 -3.251274
18.290855 22.854410 -3.155579
-21.172889 -10.880948 -1.296154
2.891852 35.820939 10.342506
-16.600844 8.126453 -1.884766
-2.343897 44.860732 9.194589
14.898730 16.671931 5.473602
4.594732 -39.973087 5.729000
22.831260 -3.162541 8.161407
7.770708 -30.285629 -3.229881
-21.621308 7.243995 -8.168289
-14.525450 16.436820 -14.748755
21.145375 -2.851674 11.528869
11.589107 13.397237 -14.522345
-10.014269 -26.581862 -10.559960
17.352595 -5.315321 10.867972
-21.975606 -4.222774 -0.557700
8.329451 -37.555777 -5.782580
-10.182918 37.582764 11.065899
2.441920 -34.721845 0.747649
20.306350 -14.626605 11.273780
14.151301 -19.610106 8.814848
18.705398 24.833364 8.675674
-3.751674 39.328947 5.729000
16.517577 9.448169 -5.243433
-4.285928 -31.377746 -11.405122
5.132470 -31.092347 -14.197458
6.497179 33.158408 9.702764
-12.338542 25.599238 10.577884
4.430747 27.533455 -16.263899
13.864560 18.693798 -12.547189
4.200164 30.539985 -12.685830
-14.882387 -17.147352 -4.737089
-8.100422 -29.437146 -15.941281
-20.421789 -20.103326 7.669742
-16.546540 8.759024 4.560140
-15.136819 -24.417725 5.729000
9.470590 21.438610 -14.383713
1.250652 33.760551 -14.123003
10.615917 -24.758867 -12.338590
21.636166 7.424624 -2.627359
-4.677266 31.843019 0.491845
